<svg width="38" height="38" viewBox="0 0 38 38" fill="none" xmlns="http://www.w3.org/2000/svg">
<circle cx="19" cy="19" r="19" fill="#2F80ED"/>
<circle cx="19" cy="19" r="16" fill="#151F30"/>
<path d="M9.759 22.024C9.621 22.024 9.488 22.008 9.36 21.976C9.234 21.942 9.134 21.9 9.06 21.85L9.216 21.514C9.29 21.56 9.377 21.598 9.477 21.628C9.579 21.656 9.679 21.67 9.777 21.67C9.885 21.67 9.961 21.657 10.005 21.631C10.051 21.605 10.074 21.569 10.074 21.523C10.074 21.485 10.056 21.457 10.02 21.439C9.986 21.419 9.94 21.404 9.882 21.394C9.824 21.384 9.76 21.374 9.69 21.364C9.622 21.354 9.553 21.341 9.483 21.325C9.413 21.307 9.349 21.281 9.291 21.247C9.233 21.213 9.186 21.167 9.15 21.109C9.116 21.051 9.099 20.976 9.099 20.884C9.099 20.782 9.128 20.692 9.186 20.614C9.246 20.536 9.332 20.475 9.444 20.431C9.556 20.385 9.69 20.362 9.846 20.362C9.956 20.362 10.068 20.374 10.182 20.398C10.296 20.422 10.391 20.457 10.467 20.503L10.311 20.836C10.233 20.79 10.154 20.759 10.074 20.743C9.996 20.725 9.92 20.716 9.846 20.716C9.742 20.716 9.666 20.73 9.618 20.758C9.57 20.786 9.546 20.822 9.546 20.866C9.546 20.906 9.563 20.936 9.597 20.956C9.633 20.976 9.68 20.992 9.738 21.004C9.796 21.016 9.859 21.027 9.927 21.037C9.997 21.045 10.067 21.058 10.137 21.076C10.207 21.094 10.27 21.12 10.326 21.154C10.384 21.186 10.431 21.231 10.467 21.289C10.503 21.345 10.521 21.419 10.521 21.511C10.521 21.611 10.491 21.7 10.431 21.778C10.371 21.854 10.284 21.914 10.17 21.958C10.058 22.002 9.921 22.024 9.759 22.024ZM11.4698 22.024C11.2798 22.024 11.1318 21.976 11.0258 21.88C10.9198 21.782 10.8668 21.637 10.8668 21.445V20.029H11.3348V21.439C11.3348 21.507 11.3528 21.56 11.3888 21.598C11.4248 21.634 11.4738 21.652 11.5358 21.652C11.6098 21.652 11.6728 21.632 11.7248 21.592L11.8508 21.922C11.8028 21.956 11.7448 21.982 11.6768 22C11.6108 22.016 11.5418 22.024 11.4698 22.024ZM10.6178 20.782V20.422H11.7368V20.782H10.6178ZM12.1135 22V20.386H12.5605V20.842L12.4975 20.71C12.5455 20.596 12.6225 20.51 12.7285 20.452C12.8345 20.392 12.9635 20.362 13.1155 20.362V20.794C13.0955 20.792 13.0775 20.791 13.0615 20.791C13.0455 20.789 13.0285 20.788 13.0105 20.788C12.8825 20.788 12.7785 20.825 12.6985 20.899C12.6205 20.971 12.5815 21.084 12.5815 21.238V22H12.1135ZM14.183 22.024C13.999 22.024 13.837 21.988 13.697 21.916C13.559 21.844 13.452 21.746 13.376 21.622C13.3 21.496 13.262 21.353 13.262 21.193C13.262 21.031 13.299 20.888 13.373 20.764C13.449 20.638 13.552 20.54 13.682 20.47C13.812 20.398 13.959 20.362 14.123 20.362C14.281 20.362 14.423 20.396 14.549 20.464C14.677 20.53 14.778 20.626 14.852 20.752C14.926 20.876 14.963 21.025 14.963 21.199C14.963 21.217 14.962 21.238 14.96 21.262C14.958 21.284 14.956 21.305 14.954 21.325H13.643V21.052H14.708L14.528 21.133C14.528 21.049 14.511 20.976 14.477 20.914C14.443 20.852 14.396 20.804 14.336 20.77C14.276 20.734 14.206 20.716 14.126 20.716C14.046 20.716 13.975 20.734 13.913 20.77C13.853 20.804 13.806 20.853 13.772 20.917C13.738 20.979 13.721 21.053 13.721 21.139V21.211C13.721 21.299 13.74 21.377 13.778 21.445C13.818 21.511 13.873 21.562 13.943 21.598C14.015 21.632 14.099 21.649 14.195 21.649C14.281 21.649 14.356 21.636 14.42 21.61C14.486 21.584 14.546 21.545 14.6 21.493L14.849 21.763C14.775 21.847 14.682 21.912 14.57 21.958C14.458 22.002 14.329 22.024 14.183 22.024ZM16.2206 22V21.685L16.1906 21.616V21.052C16.1906 20.952 16.1596 20.874 16.0976 20.818C16.0376 20.762 15.9446 20.734 15.8186 20.734C15.7326 20.734 15.6476 20.748 15.5636 20.776C15.4816 20.802 15.4116 20.838 15.3536 20.884L15.1856 20.557C15.2736 20.495 15.3796 20.447 15.5036 20.413C15.6276 20.379 15.7536 20.362 15.8816 20.362C16.1276 20.362 16.3186 20.42 16.4546 20.536C16.5906 20.652 16.6586 20.833 16.6586 21.079V22H16.2206ZM15.7286 22.024C15.6026 22.024 15.4946 22.003 15.4046 21.961C15.3146 21.917 15.2456 21.858 15.1976 21.784C15.1496 21.71 15.1256 21.627 15.1256 21.535C15.1256 21.439 15.1486 21.355 15.1946 21.283C15.2426 21.211 15.3176 21.155 15.4196 21.115C15.5216 21.073 15.6546 21.052 15.8186 21.052H16.2476V21.325H15.8696C15.7596 21.325 15.6836 21.343 15.6416 21.379C15.6016 21.415 15.5816 21.46 15.5816 21.514C15.5816 21.574 15.6046 21.622 15.6506 21.658C15.6986 21.692 15.7636 21.709 15.8456 21.709C15.9236 21.709 15.9936 21.691 16.0556 21.655C16.1176 21.617 16.1626 21.562 16.1906 21.49L16.2626 21.706C16.2286 21.81 16.1666 21.889 16.0766 21.943C15.9866 21.997 15.8706 22.024 15.7286 22.024ZM19.1492 20.362C19.2772 20.362 19.3902 20.388 19.4882 20.44C19.5882 20.49 19.6662 20.568 19.7222 20.674C19.7802 20.778 19.8092 20.912 19.8092 21.076V22H19.3412V21.148C19.3412 21.018 19.3142 20.922 19.2602 20.86C19.2062 20.798 19.1302 20.767 19.0322 20.767C18.9642 20.767 18.9032 20.783 18.8492 20.815C18.7952 20.845 18.7532 20.891 18.7232 20.953C18.6932 21.015 18.6782 21.094 18.6782 21.19V22H18.2102V21.148C18.2102 21.018 18.1832 20.922 18.1292 20.86C18.0772 20.798 18.0022 20.767 17.9042 20.767C17.8362 20.767 17.7752 20.783 17.7212 20.815C17.6672 20.845 17.6252 20.891 17.5952 20.953C17.5652 21.015 17.5502 21.094 17.5502 21.19V22H17.0822V20.386H17.5292V20.827L17.4452 20.698C17.5012 20.588 17.5802 20.505 17.6822 20.449C17.7862 20.391 17.9042 20.362 18.0362 20.362C18.1842 20.362 18.3132 20.4 18.4232 20.476C18.5352 20.55 18.6092 20.664 18.6452 20.818L18.4802 20.773C18.5342 20.647 18.6202 20.547 18.7382 20.473C18.8582 20.399 18.9952 20.362 19.1492 20.362ZM20.1687 21.343V20.968H21.0177V21.343H20.1687ZM21.9289 22.024C21.7909 22.024 21.6579 22.008 21.5299 21.976C21.4039 21.942 21.3039 21.9 21.2299 21.85L21.3859 21.514C21.4599 21.56 21.5469 21.598 21.6469 21.628C21.7489 21.656 21.8489 21.67 21.9469 21.67C22.0549 21.67 22.1309 21.657 22.1749 21.631C22.2209 21.605 22.2439 21.569 22.2439 21.523C22.2439 21.485 22.2259 21.457 22.1899 21.439C22.1559 21.419 22.1099 21.404 22.0519 21.394C21.9939 21.384 21.9299 21.374 21.8599 21.364C21.7919 21.354 21.7229 21.341 21.6529 21.325C21.5829 21.307 21.5189 21.281 21.4609 21.247C21.4029 21.213 21.3559 21.167 21.3199 21.109C21.2859 21.051 21.2689 20.976 21.2689 20.884C21.2689 20.782 21.2979 20.692 21.3559 20.614C21.4159 20.536 21.5019 20.475 21.6139 20.431C21.7259 20.385 21.8599 20.362 22.0159 20.362C22.1259 20.362 22.2379 20.374 22.3519 20.398C22.4659 20.422 22.5609 20.457 22.6369 20.503L22.4809 20.836C22.4029 20.79 22.3239 20.759 22.2439 20.743C22.1659 20.725 22.0899 20.716 22.0159 20.716C21.9119 20.716 21.8359 20.73 21.7879 20.758C21.7399 20.786 21.7159 20.822 21.7159 20.866C21.7159 20.906 21.7329 20.936 21.7669 20.956C21.8029 20.976 21.8499 20.992 21.9079 21.004C21.9659 21.016 22.0289 21.027 22.0969 21.037C22.1669 21.045 22.2369 21.058 22.3069 21.076C22.3769 21.094 22.4399 21.12 22.4959 21.154C22.5539 21.186 22.6009 21.231 22.6369 21.289C22.6729 21.345 22.6909 21.419 22.6909 21.511C22.6909 21.611 22.6609 21.7 22.6009 21.778C22.5409 21.854 22.4539 21.914 22.3399 21.958C22.2279 22.002 22.0909 22.024 21.9289 22.024ZM23.6397 22.024C23.4497 22.024 23.3017 21.976 23.1957 21.88C23.0897 21.782 23.0367 21.637 23.0367 21.445V20.029H23.5047V21.439C23.5047 21.507 23.5227 21.56 23.5587 21.598C23.5947 21.634 23.6437 21.652 23.7057 21.652C23.7797 21.652 23.8427 21.632 23.8947 21.592L24.0207 21.922C23.9727 21.956 23.9147 21.982 23.8467 22C23.7807 22.016 23.7117 22.024 23.6397 22.024ZM22.7877 20.782V20.422H23.9067V20.782H22.7877ZM25.0016 22.024C24.8296 22.024 24.6766 21.988 24.5426 21.916C24.4106 21.844 24.3056 21.746 24.2276 21.622C24.1516 21.496 24.1136 21.353 24.1136 21.193C24.1136 21.031 24.1516 20.888 24.2276 20.764C24.3056 20.638 24.4106 20.54 24.5426 20.47C24.6766 20.398 24.8296 20.362 25.0016 20.362C25.1716 20.362 25.3236 20.398 25.4576 20.47C25.5916 20.54 25.6966 20.637 25.7726 20.761C25.8486 20.885 25.8866 21.029 25.8866 21.193C25.8866 21.353 25.8486 21.496 25.7726 21.622C25.6966 21.746 25.5916 21.844 25.4576 21.916C25.3236 21.988 25.1716 22.024 25.0016 22.024ZM25.0016 21.64C25.0796 21.64 25.1496 21.622 25.2116 21.586C25.2736 21.55 25.3226 21.499 25.3586 21.433C25.3946 21.365 25.4126 21.285 25.4126 21.193C25.4126 21.099 25.3946 21.019 25.3586 20.953C25.3226 20.887 25.2736 20.836 25.2116 20.8C25.1496 20.764 25.0796 20.746 25.0016 20.746C24.9236 20.746 24.8536 20.764 24.7916 20.8C24.7296 20.836 24.6796 20.887 24.6416 20.953C24.6056 21.019 24.5876 21.099 24.5876 21.193C24.5876 21.285 24.6056 21.365 24.6416 21.433C24.6796 21.499 24.7296 21.55 24.7916 21.586C24.8536 21.622 24.9236 21.64 25.0016 21.64ZM26.1994 22V20.386H26.6464V20.842L26.5834 20.71C26.6314 20.596 26.7084 20.51 26.8144 20.452C26.9204 20.392 27.0494 20.362 27.2014 20.362V20.794C27.1814 20.792 27.1634 20.791 27.1474 20.791C27.1314 20.789 27.1144 20.788 27.0964 20.788C26.9684 20.788 26.8644 20.825 26.7844 20.899C26.7064 20.971 26.6674 21.084 26.6674 21.238V22H26.1994ZM28.269 22.024C28.085 22.024 27.923 21.988 27.783 21.916C27.645 21.844 27.538 21.746 27.462 21.622C27.386 21.496 27.348 21.353 27.348 21.193C27.348 21.031 27.385 20.888 27.459 20.764C27.535 20.638 27.638 20.54 27.768 20.47C27.898 20.398 28.045 20.362 28.209 20.362C28.367 20.362 28.509 20.396 28.635 20.464C28.763 20.53 28.864 20.626 28.938 20.752C29.012 20.876 29.049 21.025 29.049 21.199C29.049 21.217 29.048 21.238 29.046 21.262C29.044 21.284 29.042 21.305 29.04 21.325H27.729V21.052H28.794L28.614 21.133C28.614 21.049 28.597 20.976 28.563 20.914C28.529 20.852 28.482 20.804 28.422 20.77C28.362 20.734 28.292 20.716 28.212 20.716C28.132 20.716 28.061 20.734 27.999 20.77C27.939 20.804 27.892 20.853 27.858 20.917C27.824 20.979 27.807 21.053 27.807 21.139V21.211C27.807 21.299 27.826 21.377 27.864 21.445C27.904 21.511 27.959 21.562 28.029 21.598C28.101 21.632 28.185 21.649 28.281 21.649C28.367 21.649 28.442 21.636 28.506 21.61C28.572 21.584 28.632 21.545 28.686 21.493L28.935 21.763C28.861 21.847 28.768 21.912 28.656 21.958C28.544 22.002 28.415 22.024 28.269 22.024Z" fill="white"/>
<path d="M9.817 16.108C9.313 16.108 8.83 16.042 8.368 15.91C7.906 15.772 7.534 15.595 7.252 15.379L7.747 14.281C8.017 14.473 8.335 14.632 8.701 14.758C9.073 14.878 9.448 14.938 9.826 14.938C10.114 14.938 10.345 14.911 10.519 14.857C10.699 14.797 10.831 14.716 10.915 14.614C10.999 14.512 11.041 14.395 11.041 14.263C11.041 14.095 10.975 13.963 10.843 13.867C10.711 13.765 10.537 13.684 10.321 13.624C10.105 13.558 9.865 13.498 9.601 13.444C9.343 13.384 9.082 13.312 8.818 13.228C8.56 13.144 8.323 13.036 8.107 12.904C7.891 12.772 7.714 12.598 7.576 12.382C7.444 12.166 7.378 11.89 7.378 11.554C7.378 11.194 7.474 10.867 7.666 10.573C7.864 10.273 8.158 10.036 8.548 9.862C8.944 9.682 9.439 9.592 10.033 9.592C10.429 9.592 10.819 9.64 11.203 9.736C11.587 9.826 11.926 9.964 12.22 10.15L11.77 11.257C11.476 11.089 11.182 10.966 10.888 10.888C10.594 10.804 10.306 10.762 10.024 10.762C9.742 10.762 9.511 10.795 9.331 10.861C9.151 10.927 9.022 11.014 8.944 11.122C8.866 11.224 8.827 11.344 8.827 11.482C8.827 11.644 8.893 11.776 9.025 11.878C9.157 11.974 9.331 12.052 9.547 12.112C9.763 12.172 10 12.232 10.258 12.292C10.522 12.352 10.783 12.421 11.041 12.499C11.305 12.577 11.545 12.682 11.761 12.814C11.977 12.946 12.151 13.12 12.283 13.336C12.421 13.552 12.49 13.825 12.49 14.155C12.49 14.509 12.391 14.833 12.193 15.127C11.995 15.421 11.698 15.658 11.302 15.838C10.912 16.018 10.417 16.108 9.817 16.108ZM15.5134 16V10.888H13.4974V9.7H18.9874V10.888H16.9714V16H15.5134Z" fill="#E0E0E0"/>
<circle cx="19.5" cy="15.5" r="0.5" fill="#EB5757"/>
</svg>
