<svg width="38" height="38" viewBox="0 0 38 38" fill="none" xmlns="http://www.w3.org/2000/svg">
<circle cx="19" cy="19" r="19" fill="#2F80ED"/>
<circle cx="19" cy="19" r="16" fill="#151F30"/>
<path d="M12.321 25.204C11.369 25.204 10.4567 25.0793 9.584 24.83C8.71133 24.5693 8.00867 24.235 7.476 23.827L8.411 21.753C8.921 22.1157 9.52167 22.416 10.213 22.654C10.9157 22.8807 11.624 22.994 12.338 22.994C12.882 22.994 13.3183 22.943 13.647 22.841C13.987 22.7277 14.2363 22.5747 14.395 22.382C14.5537 22.1893 14.633 21.9683 14.633 21.719C14.633 21.4017 14.5083 21.1523 14.259 20.971C14.0097 20.7783 13.681 20.6253 13.273 20.512C12.865 20.3873 12.4117 20.274 11.913 20.172C11.4257 20.0587 10.9327 19.9227 10.434 19.764C9.94667 19.6053 9.499 19.4013 9.091 19.152C8.683 18.9027 8.34867 18.574 8.088 18.166C7.83867 17.758 7.714 17.2367 7.714 16.602C7.714 15.922 7.89533 15.3043 8.258 14.749C8.632 14.1823 9.18733 13.7347 9.924 13.406C10.672 13.066 11.607 12.896 12.729 12.896C13.477 12.896 14.2137 12.9867 14.939 13.168C15.6643 13.338 16.3047 13.5987 16.86 13.95L16.01 16.041C15.4547 15.7237 14.8993 15.4913 14.344 15.344C13.7887 15.1853 13.2447 15.106 12.712 15.106C12.1793 15.106 11.743 15.1683 11.403 15.293C11.063 15.4177 10.8193 15.582 10.672 15.786C10.5247 15.9787 10.451 16.2053 10.451 16.466C10.451 16.772 10.5757 17.0213 10.825 17.214C11.0743 17.3953 11.403 17.5427 11.811 17.656C12.219 17.7693 12.6667 17.8827 13.154 17.996C13.6527 18.1093 14.1457 18.2397 14.633 18.387C15.1317 18.5343 15.585 18.7327 15.993 18.982C16.401 19.2313 16.7297 19.56 16.979 19.968C17.2397 20.376 17.37 20.8917 17.37 21.515C17.37 22.1837 17.183 22.7957 16.809 23.351C16.435 23.9063 15.874 24.354 15.126 24.694C14.3893 25.034 13.4543 25.204 12.321 25.204ZM23.0808 25V15.344H19.2728V13.1H29.6428V15.344H25.8348V25H23.0808Z" fill="#E0E0E0"/>
<circle cx="30.5" cy="24.5" r="0.5" fill="#EB5757"/>
</svg>
